<?xml version="1.0" encoding="UTF-8"?> <svg xmlns="http://www.w3.org/2000/svg" id="Layer_1" data-name="Layer 1" viewBox="0 0 604 212"><title>iod_h_tp_primary_c</title><path d="M85.25,209.87l-1.64-.57c-16.76-5.8-31.37-14-43.43-24.27A111.91,111.91,0,0,1,10.1,144.28c-7.58-17.63-8.19-34.5-8.19-53.15V1.58H168.59V91.13c0,18.65-.61,35.52-8.19,53.15A112,112,0,0,1,130.32,185c-12.06,10.3-26.67,18.47-43.43,24.27ZM11.91,11.58V91.13c0,17.53.55,33.32,7.37,49.21a102.07,102.07,0,0,0,27.4,37.09,123,123,0,0,0,38.57,21.85,123,123,0,0,0,38.57-21.85,102.07,102.07,0,0,0,27.4-37.09c6.82-15.89,7.37-31.69,7.37-49.21V11.58Z" style="fill:#0020ff"></path><circle cx="59.9" cy="33.98" r="10.18" style="fill:#0020ff"></circle><circle cx="59.9" cy="105.22" r="10.18" style="fill:#0020ff"></circle><circle cx="110.78" cy="105.22" r="10.18" style="fill:#0020ff"></circle><circle cx="85.34" cy="79.78" r="10.18" style="fill:#0020ff"></circle><circle cx="85.34" cy="151.01" r="10.18" style="fill:#0020ff"></circle><circle cx="85.34" cy="176.45" r="10.18" style="fill:#0020ff"></circle><circle cx="34.46" cy="79.78" r="10.18" style="fill:#0020ff"></circle><circle cx="110.78" cy="33.98" r="10.18" style="fill:#0020ff"></circle><circle cx="136.23" cy="79.78" r="10.18" style="fill:#0020ff"></circle><rect x="24.28" y="23.81" width="20.35" height="40.71" rx="10.18" style="fill:#0020ff"></rect><rect x="75.17" y="23.81" width="20.35" height="40.71" rx="10.18" style="fill:#0020ff"></rect><rect x="75.17" y="95.04" width="20.35" height="40.71" rx="10.18" style="fill:#0020ff"></rect><rect x="24.28" y="95.04" width="20.35" height="40.71" rx="10.18" style="fill:#0020ff"></rect><rect x="126.05" y="95.04" width="20.35" height="40.71" rx="10.18" style="fill:#0020ff"></rect><rect x="100.61" y="49.25" width="20.35" height="40.71" rx="10.18" style="fill:#0020ff"></rect><rect x="49.73" y="49.25" width="20.35" height="40.71" rx="10.18" style="fill:#0020ff"></rect><rect x="49.73" y="120.48" width="20.35" height="40.71" rx="10.18" style="fill:#0020ff"></rect><rect x="100.61" y="120.48" width="20.35" height="40.71" rx="10.18" style="fill:#0020ff"></rect><rect x="126.05" y="23.81" width="20.35" height="40.71" rx="10.18" style="fill:#0020ff"></rect><rect x="216.26" y="24.07" width="11.5" height="74.22"></rect><path d="M251.32,76.35c0-10.07,1.41-21.62,12.45-21.62,8.49,0,9.58,6.92,9.58,13V98.29h11.09V64.93c0-13.06-6.25-20.25-17.59-20.25-6.61,0-12.09,2.43-15.53,6.87V45.64H240.23V98.29h11.09Z"></path><path d="M313,65.59c-5.32-1.5-9.91-2.8-9.91-6.47,0-3.07,3-5.13,7.43-5.13,4.81,0,8.32,2.24,10.74,6.84l.13.24L330,56.16l-.12-.23c-3.72-7.25-10.47-11.25-19-11.25-11,0-18.41,6.14-18.41,15.28,0,11.13,9.27,13.65,16.72,15.67,5.55,1.51,10.35,2.81,10.35,7.06,0,4.69-4.65,6.82-9,6.82-7.21,0-10.42-4.79-11.85-8.81l-.1-.27-9,4.13.07.22c2.61,8.65,11.16,14.46,21.27,14.46,9.68,0,19.45-5.31,19.45-17.18C330.43,70.54,320.73,67.79,313,65.59Z"></path><path d="M341.36,84.17c0,9.58,5.33,15.07,14.62,15.07a29,29,0,0,0,8.8-1.49l.19-.06-.11-9.44-.34.11a19.67,19.67,0,0,1-6,1.15c-4,0-6.1-2.17-6.1-6.29V54.94h12.41v-9.3H352.45V24.33l-11.09,8.43V45.64h-8.3v9.3h8.3Z"></path><rect x="370.18" y="24.07" width="11.81" height="11.95"></rect><rect x="370.59" y="45.64" width="11.09" height="52.65"></rect><path d="M417.84,88.36a19.56,19.56,0,0,1-6,1.15c-4,0-6.09-2.17-6.09-6.29V54.94h12.41v-9.3H405.78V24.33l-11.09,8.43V45.64h-8.31v9.3h8.31V84.17c0,9.58,5.33,15.07,14.62,15.07a29.11,29.11,0,0,0,8.8-1.49l.18-.06-.11-9.44Z"></path><path d="M456.43,67.05c0,10.31-1.4,22.15-12.35,22.15-8.58,0-9.68-7.32-9.68-13.7V45.64H423.31V78.25c0,13.34,6.49,21,17.8,21,6.48,0,11.88-2.46,15.32-7v6h11.1V45.64h-11.1Z"></path><path d="M503.79,88.36a19.56,19.56,0,0,1-6,1.15c-4,0-6.09-2.17-6.09-6.29V54.94h12.41v-9.3H491.73V24.33l-11.09,8.43V45.64h-8.31v9.3h8.31V84.17c0,9.58,5.32,15.07,14.62,15.07a29,29,0,0,0,8.79-1.49l.19-.06-.11-9.44Z"></path><path d="M529.69,44.68c-16.4,0-23.75,13.84-23.75,27.55,0,7.58,2.06,14.11,5.95,18.89,4.32,5.31,10.76,8.12,18.62,8.12,8.54,0,14.89-2.86,20.61-9.29l.18-.19-7.79-6.91-.17.2a15.48,15.48,0,0,1-12.72,5.83c-8.12,0-13.06-4.81-13.57-13.22h35.44l0-.23a38.39,38.39,0,0,0,.31-4.79C552.83,58.67,546.77,44.68,529.69,44.68Zm12.45,21.68H517.07c1.11-8.88,7.23-12,12.62-12C536.92,54.31,541.92,59.15,542.14,66.36Z"></path><path d="M576.57,75.75c-6.28,0-10.85,4.9-10.85,11.66s4.57,11.7,10.85,11.7,10.81-4.92,10.81-11.7S582.84,75.75,576.57,75.75Zm5.59,11.66c0,3.34-1.47,6.91-5.59,6.91S571,90.75,571,87.41c0-4.31,2.1-6.88,5.62-6.88C580.69,80.53,582.16,84.08,582.16,87.41Z"></path><path d="M597.44,73.68c0-2.32,1.3-2.32,1.73-2.32a3.62,3.62,0,0,1,1.76.51l.4.24,1.79-4.32-.36-.17a9.68,9.68,0,0,0-4.06-.87c-2.94,0-6.45,1.22-6.45,7v2.37h-4.19v4.48h4.15V98.71h5.23V80.62h5.3V76.14h-5.3Z"></path><path d="M236.73,112.42H216.26v74.22h20.37c24.11,0,37.38-13,37.38-36.53C274,126.16,260.42,112.42,236.73,112.42Zm-9,11h8.87c17.59,0,25.78,8.35,25.78,26.27s-8.27,26-26.81,26h-7.84Z"></path><path d="M302.31,133c-9.08,0-16.36,3.63-22.26,11.09l-.15.2,8.1,7,.17-.24c3.7-5.25,8.55-8,14-8,6.51,0,10.4,3.94,10.4,10.52v1.54H301.08c-7.14,0-11.92.82-15.5,2.67-4.59,2.36-7.12,6.95-7.12,12.92,0,10.09,7.32,16.87,18.21,16.87,6.88,0,12.71-2.86,16.13-7.86l.76,6.9H323.7v-33C323.7,140.73,315.7,133,302.31,133Zm10.3,31c0,8-5.9,13.85-14,13.85-5.59,0-9.07-2.66-9.07-6.93a5.57,5.57,0,0,1,2.16-4.87c1.84-1.5,4.71-2,10.6-2Z"></path><path d="M358.36,176.72a19.87,19.87,0,0,1-6,1.15c-4,0-6.1-2.18-6.1-6.29V143.29h12.41V134H346.3V112.68l-11.09,8.44V134H326.9v9.3h8.31v29.24c0,9.57,5.33,15.07,14.62,15.07a29,29,0,0,0,8.8-1.5l.19-.06-.11-9.43Z"></path><path d="M385.72,133c-9.08,0-16.36,3.63-22.26,11.09l-.16.2,8.11,7,.17-.24c3.69-5.25,8.55-8,14-8,6.52,0,10.4,3.94,10.4,10.52v1.54H384.49c-7.14,0-11.92.82-15.51,2.67-4.59,2.36-7.12,6.95-7.12,12.92,0,10.09,7.32,16.87,18.22,16.87,6.88,0,12.71-2.86,16.12-7.86l.77,6.9h10.14v-33C407.11,140.73,399.11,133,385.72,133ZM382,177.87c-5.59,0-9.06-2.66-9.06-6.93a5.59,5.59,0,0,1,2.15-4.87c1.85-1.5,4.72-2,10.61-2H396C396,172.05,390.11,177.87,382,177.87Z"></path></svg> 